<svg id="visual" viewBox="0 0 960 540" width="960" height="540" xmlns="http://www.w3.org/2000/svg" xmlns:xlink="http://www.w3.org/1999/xlink" version="1.1"><rect x="0" y="0" width="960" height="540" fill="#001220"></rect><defs><linearGradient id="grad1_0" x1="43.8%" y1="100%" x2="100%" y2="0%"><stop offset="14.444444444444446%" stop-color="#001220" stop-opacity="1"></stop><stop offset="85.55555555555554%" stop-color="#001220" stop-opacity="1"></stop></linearGradient></defs><defs><linearGradient id="grad2_0" x1="0%" y1="100%" x2="56.3%" y2="0%"><stop offset="14.444444444444446%" stop-color="#001220" stop-opacity="1"></stop><stop offset="85.55555555555554%" stop-color="#001220" stop-opacity="1"></stop></linearGradient></defs><g transform="translate(960, 540)"><path d="M-297 0C-273.9 -43.6 -250.9 -87.2 -226.9 -131C-202.9 -174.8 -178 -218.8 -140 -242.5C-102 -266.2 -51 -269.6 0 -273L0 0Z" fill="#F7CACA"></path></g><g transform="translate(0, 0)"><path d="M297 0C270.7 42.5 244.4 85 219.1 126.5C193.8 168 169.4 208.6 133 230.4C96.6 252.1 48.3 255.1 0 258L0 0Z" fill="#F7CACA"></path></g></svg>